<?xml version="1.0" standalone="no"?>
<!DOCTYPE svg PUBLIC "-//W3C//DTD SVG 20010904//EN"
 "http://www.w3.org/TR/2001/REC-SVG-20010904/DTD/svg10.dtd">
<svg version="1.0" xmlns="http://www.w3.org/2000/svg"
 width="1288.000000pt" height="1288.000000pt" viewBox="0 0 1288.000000 1288.000000"
 preserveAspectRatio="xMidYMid meet">
<metadata>
Created by potrace 1.11, written by Peter Selinger 2001-2013
</metadata>
<g transform="translate(0.000000,1288.000000) scale(0.100000,-0.100000)"
fill="#000000" stroke="none">
<path d="M7039 12876 c-2 -2 -49 -6 -104 -10 -55 -4 -113 -9 -130 -11 -16 -2
-55 -7 -85 -10 -30 -4 -64 -8 -75 -9 -11 -2 -45 -7 -75 -11 -85 -11 -344 -63
-450 -91 -370 -98 -619 -189 -935 -343 -730 -357 -1299 -839 -1808 -1532 -20
-27 -174 -263 -196 -300 -284 -476 -486 -995 -597 -1534 -10 -51 -14 -72 -18
-100 -3 -16 -12 -70 -20 -120 -16 -95 -20 -124 -32 -244 -8 -82 1 -70 -142
-199 -161 -144 -371 -365 -477 -500 -11 -14 -32 -39 -46 -56 -44 -53 -179
-234 -179 -240 0 -3 -7 -14 -16 -23 -9 -10 -49 -70 -90 -133 -40 -63 -77 -120
-81 -126 -4 -5 -16 -26 -27 -45 -10 -19 -32 -59 -49 -89 -16 -30 -48 -89 -69
-130 -22 -41 -43 -79 -47 -85 -10 -13 -172 -387 -175 -405 -1 -3 -4 -9 -7 -15
-5 -8 -29 -75 -34 -95 -1 -3 -5 -12 -8 -20 -8 -18 -77 -228 -82 -250 -2 -8
-17 -66 -34 -127 -16 -62 -27 -113 -25 -113 3 0 0 -8 -5 -17 -5 -10 -12 -34
-15 -53 -3 -19 -8 -46 -11 -60 -6 -27 -21 -107 -30 -155 -2 -16 -7 -39 -9 -50
-6 -34 -20 -137 -30 -225 -23 -196 -28 -295 -29 -520 0 -256 8 -397 38 -634
17 -135 25 -187 56 -341 11 -55 23 -111 25 -124 3 -14 7 -28 9 -31 2 -4 7 -22
10 -41 28 -146 161 -551 237 -719 27 -60 41 -94 42 -102 1 -4 7 -13 14 -20 6
-6 12 -18 12 -25 0 -31 246 -489 290 -540 5 -7 15 -24 22 -38 6 -14 15 -25 20
-25 4 0 8 -5 8 -11 0 -6 11 -25 25 -43 14 -18 25 -38 25 -44 0 -6 3 -12 8 -14
12 -5 92 -116 92 -128 0 -6 5 -8 10 -5 6 3 10 0 10 -8 0 -7 8 -22 18 -33 9
-10 33 -39 52 -64 19 -25 39 -50 45 -56 5 -7 26 -31 45 -55 19 -24 43 -51 53
-61 9 -10 17 -20 17 -22 0 -20 387 -400 500 -492 19 -16 42 -37 51 -46 9 -10
19 -18 23 -18 6 0 49 -36 82 -67 7 -7 15 -13 19 -13 4 0 14 -7 23 -16 14 -15
17 -15 28 2 8 11 17 24 22 29 4 6 26 35 48 65 23 30 59 75 81 100 36 38 46 70
24 70 -8 0 -62 43 -93 73 -10 9 -20 17 -23 17 -6 0 -36 25 -85 70 -60 55 -78
69 -84 63 -3 -4 -6 1 -6 10 0 9 -8 21 -19 26 -23 13 -205 195 -292 292 -35 40
-71 80 -79 88 -15 17 -136 168 -165 206 -8 11 -33 43 -55 71 -22 28 -37 54
-33 58 3 3 2 6 -3 6 -5 0 -20 18 -34 40 -14 22 -28 40 -32 40 -5 0 -8 5 -8 10
0 6 -24 47 -53 93 -69 105 -147 241 -147 255 0 6 -4 12 -9 14 -8 3 -151 290
-151 303 0 3 -9 24 -19 48 -47 102 -99 241 -137 362 -14 44 -29 89 -34 100 -5
11 -11 31 -13 45 -3 14 -17 66 -31 115 -13 50 -27 101 -30 115 -3 14 -8 36
-11 50 -3 14 -8 39 -10 55 -3 17 -9 49 -15 73 -5 23 -13 59 -16 80 -3 20 -7
48 -10 62 -4 26 -10 68 -19 143 -3 23 -7 49 -9 57 -3 8 -8 60 -11 115 -4 55
-9 120 -11 145 -10 129 -4 493 11 640 2 25 7 70 9 100 3 30 7 64 10 75 2 11 7
47 11 80 3 33 11 79 16 103 5 23 12 59 15 80 16 108 107 462 143 555 6 15 8
27 5 27 -4 0 -2 6 3 13 5 6 16 32 23 57 7 25 17 50 20 55 4 6 19 46 35 90 16
44 31 82 34 85 3 3 7 10 8 17 3 13 55 130 84 186 10 20 15 37 11 37 -4 0 -2 4
3 8 6 4 35 54 64 112 30 58 61 116 71 130 10 14 27 45 40 69 12 24 26 49 31
55 20 24 58 86 53 86 -3 0 1 7 8 15 29 32 38 45 38 53 0 5 9 17 20 27 11 10
17 22 14 26 -3 5 -2 9 3 9 4 0 19 17 33 38 24 36 29 43 58 77 7 8 11 15 8 15
-3 0 8 14 24 30 17 17 30 34 30 38 0 4 14 21 30 39 17 18 30 35 30 39 0 4 11
17 25 30 14 13 25 28 25 34 0 5 4 10 10 10 5 0 16 12 24 28 8 15 15 23 16 18
0 -5 10 4 22 20 27 35 58 68 161 173 l77 80 1 -37 c3 -151 17 -340 40 -514 15
-117 17 -130 23 -165 3 -18 8 -48 12 -65 37 -223 130 -565 217 -805 320 -876
883 -1633 1632 -2194 124 -92 224 -162 277 -194 10 -5 68 -41 130 -79 261
-161 683 -353 983 -449 236 -76 500 -140 705 -173 112 -17 113 -17 205 -29 33
-3 71 -9 85 -11 193 -30 798 -25 1055 10 28 4 68 9 90 12 22 2 65 9 95 14 30
5 71 12 90 15 69 11 147 27 265 56 583 143 1009 328 1586 692 l28 19 -4 -39
c-2 -21 -7 -49 -10 -63 -3 -14 -8 -38 -11 -55 -23 -130 -95 -413 -117 -468 -9
-20 -13 -37 -10 -37 3 0 1 -6 -5 -13 -6 -6 -10 -15 -10 -20 -1 -17 -15 -72
-23 -87 -8 -13 -54 -135 -63 -165 -9 -31 -78 -190 -133 -305 -30 -63 -54 -117
-53 -119 1 -2 -2 -7 -7 -10 -5 -3 -33 -49 -61 -101 -70 -127 -86 -154 -94
-158 -5 -2 -8 -8 -8 -14 0 -6 -11 -25 -23 -42 -13 -17 -26 -35 -28 -41 -12
-29 -52 -85 -61 -85 -5 0 -6 -4 -3 -10 3 -5 -3 -17 -15 -27 -11 -10 -20 -23
-20 -30 0 -7 -4 -13 -8 -13 -4 0 -16 -14 -27 -32 -10 -18 -30 -45 -44 -61 -14
-16 -25 -33 -23 -38 1 -5 -5 -9 -15 -9 -9 0 -14 -3 -10 -6 3 -4 1 -12 -6 -19
-7 -7 -23 -28 -37 -47 -14 -18 -35 -43 -47 -55 -12 -12 -28 -32 -36 -43 -8
-11 -32 -40 -53 -63 -22 -23 -51 -56 -65 -74 -15 -18 -30 -29 -33 -26 -3 4 -6
1 -6 -5 0 -19 -292 -302 -312 -302 -5 0 -6 -4 -3 -10 3 -5 2 -10 -3 -10 -6 0
-27 -15 -48 -34 -21 -19 -42 -32 -46 -30 -5 3 -8 -1 -8 -8 0 -8 -13 -22 -30
-31 -16 -10 -30 -23 -30 -28 0 -6 -4 -7 -10 -4 -5 3 -10 3 -10 -2 0 -4 -23
-23 -50 -42 -28 -19 -50 -38 -50 -43 0 -5 -4 -6 -10 -3 -5 3 -10 1 -10 -5 0
-6 -11 -15 -25 -20 -14 -5 -28 -17 -32 -26 -5 -13 -7 -13 -14 -2 -7 10 -9 9
-9 -4 0 -10 -4 -18 -9 -18 -15 0 -111 -66 -106 -73 3 -4 2 -5 -1 -3 -3 3 -24
-6 -45 -20 -21 -13 -39 -21 -39 -18 0 4 -8 -3 -19 -14 -10 -12 -26 -22 -35
-22 -9 0 -16 -4 -16 -9 0 -5 -15 -14 -32 -22 -18 -7 -35 -16 -38 -19 -9 -10
-81 -50 -91 -50 -6 0 -17 -7 -26 -15 -8 -8 -19 -13 -24 -10 -5 4 -9 2 -9 -3 0
-9 -55 -37 -73 -37 -5 0 -14 -8 -21 -17 -7 -10 -16 -15 -19 -11 -4 3 -13 1
-20 -5 -8 -7 -17 -9 -20 -5 -4 3 -7 1 -7 -6 0 -7 -4 -9 -10 -6 -5 3 -10 2 -10
-3 0 -5 -8 -12 -17 -14 -10 -3 -21 -6 -25 -7 -4 -1 -40 -17 -80 -35 -40 -18
-107 -45 -148 -60 -41 -15 -84 -31 -95 -36 -35 -15 -100 -34 -107 -32 -5 1 -8
-3 -8 -10 0 -6 -3 -9 -6 -5 -3 3 -18 1 -33 -5 -29 -11 -60 -19 -78 -20 -7 -1
-13 -5 -13 -9 0 -5 -6 -6 -14 -3 -8 3 -17 0 -21 -5 -3 -6 -11 -9 -16 -6 -5 4
-9 2 -9 -3 0 -5 -11 -8 -25 -7 -14 2 -25 0 -25 -4 0 -4 -6 -8 -12 -9 -7 0 -29
-4 -48 -8 -19 -3 -39 -7 -45 -8 -5 -1 -16 -5 -23 -10 -7 -4 -16 -5 -19 -2 -3
3 -11 1 -18 -4 -6 -5 -29 -12 -51 -15 -21 -3 -50 -7 -64 -10 -14 -3 -41 -8
-60 -11 -19 -4 -41 -11 -47 -17 -9 -6 -13 -6 -13 2 0 7 -5 9 -12 5 -6 -4 -21
-8 -32 -9 -32 -4 -98 -14 -126 -20 -19 -4 -26 -13 -28 -32 -1 -15 -5 -29 -10
-32 -4 -3 -9 -15 -10 -26 -2 -11 -13 -37 -23 -57 -11 -21 -17 -38 -14 -38 3 0
-4 -9 -15 -20 -11 -11 -20 -26 -20 -34 0 -8 -4 -16 -9 -18 -5 -2 -21 -21 -36
-43 -14 -22 -28 -39 -31 -37 -2 1 -4 0 -4 -3 0 -3 0 -10 0 -16 0 -5 6 -7 12
-3 7 5 33 9 58 11 61 3 82 7 99 17 10 7 12 5 6 -3 -5 -10 -3 -11 11 -4 11 5
31 8 47 7 15 0 27 2 27 5 0 3 12 6 28 7 25 0 89 9 137 18 46 10 121 20 128 18
4 -1 7 3 7 9 0 5 3 8 8 5 4 -2 27 0 52 5 25 6 54 12 65 14 11 2 21 4 23 5 1 2
5 3 10 4 22 5 78 16 87 17 6 1 17 5 25 9 8 4 33 11 54 14 22 4 45 11 52 17 6
5 16 9 20 8 5 -1 16 0 24 3 8 3 37 12 64 21 26 9 52 15 56 12 5 -3 10 -1 12 5
1 5 12 11 23 13 11 2 33 9 48 15 16 7 32 12 37 12 4 0 20 7 36 14 15 8 31 13
36 10 4 -3 8 -1 8 4 0 5 6 9 13 9 6 0 30 8 52 18 22 10 46 17 53 16 6 -1 12 3
12 9 0 5 3 9 8 8 4 -1 17 3 30 10 12 7 22 10 22 7 0 -3 17 4 37 15 21 11 43
20 50 20 7 0 13 5 13 10 0 6 3 9 8 8 4 -1 22 6 39 15 18 10 35 17 38 17 3 0
47 21 98 47 50 26 95 46 100 45 4 -1 7 2 7 8 0 5 4 10 10 10 5 0 31 13 59 29
27 16 52 27 55 24 3 -4 6 -2 6 4 0 6 14 16 30 23 17 7 30 16 30 20 0 4 8 10
18 14 29 9 295 180 328 211 6 5 22 17 34 25 12 8 28 20 34 25 6 6 27 22 46 35
19 13 37 27 40 30 3 3 25 21 50 40 25 19 53 41 62 49 9 9 38 34 63 56 26 22
57 50 68 63 11 12 27 22 34 22 7 0 13 7 13 15 0 8 4 15 10 15 9 0 270 258 270
267 0 9 29 33 40 33 6 0 9 4 6 9 -3 4 7 20 22 34 15 14 32 32 37 39 17 22 99
122 110 133 6 7 21 26 35 44 14 18 31 39 38 46 6 8 12 18 12 24 0 6 3 11 8 11
4 0 22 22 40 50 18 27 37 50 43 50 6 0 8 4 5 8 -3 5 2 18 12 28 9 10 30 39 47
64 16 25 34 48 40 52 5 4 6 8 1 8 -5 0 -1 9 9 20 19 20 30 39 60 98 10 17 21
32 26 32 5 0 9 9 9 20 0 11 4 20 8 20 10 0 37 50 34 63 -1 4 1 7 6 7 4 0 16
17 27 37 11 21 24 41 28 44 5 3 7 8 6 10 -2 2 20 50 49 106 29 57 49 103 45
103 -4 0 -3 4 4 8 10 6 55 97 51 105 0 1 9 20 21 42 11 22 21 45 21 52 0 7 4
13 8 13 5 0 9 6 9 13 0 6 17 55 38 107 56 142 155 451 154 480 0 3 4 17 10 33
6 15 13 38 15 50 3 12 18 83 35 157 28 131 39 188 46 240 2 14 5 39 8 55 5 28
7 47 22 166 4 25 8 67 9 94 3 41 9 54 37 79 233 204 358 332 593 606 61 71
214 281 291 400 48 74 96 147 106 162 11 15 19 29 19 31 0 2 22 42 48 88 123
213 257 508 344 754 77 217 166 542 192 700 3 17 14 84 25 150 12 66 23 143
26 170 2 28 7 76 10 107 3 31 8 83 12 115 4 32 7 186 7 343 1 253 -3 365 -19
505 -3 22 -7 65 -11 95 -9 86 -42 283 -70 415 -157 752 -522 1502 -1017 2090
-126 149 -212 240 -442 462 -25 24 -254 216 -300 251 -478 366 -1004 633
-1589 808 -66 20 -130 38 -143 40 -12 2 -34 9 -48 14 -14 5 -25 7 -25 5 0 -2
-10 -1 -23 4 -13 5 -41 12 -61 15 -21 4 -41 8 -45 11 -8 4 -270 50 -341 60
-25 3 -61 7 -80 10 -55 7 -134 16 -192 21 -63 6 -634 15 -639 10z m576 -770
c17 -2 62 -7 100 -11 280 -28 569 -92 862 -190 926 -311 1709 -949 2207 -1798
36 -61 173 -332 195 -387 13 -30 29 -68 36 -85 152 -346 266 -818 302 -1250
10 -120 10 -506 -1 -625 -4 -52 -9 -109 -11 -125 -1 -17 -6 -50 -10 -75 -3
-25 -8 -56 -10 -70 -80 -563 -310 -1160 -636 -1648 -70 -105 -196 -277 -235
-322 -12 -14 -31 -36 -42 -49 l-19 -24 -6 39 c-4 21 -9 57 -12 79 -4 22 -8 51
-11 65 -12 65 -33 167 -38 190 -3 14 -8 36 -11 50 -9 44 -14 64 -25 105 -6 22
-13 51 -16 65 -3 14 -8 34 -11 45 -4 11 -8 25 -9 32 -2 13 -32 109 -41 133 -4
8 -5 20 -4 27 1 6 -3 14 -9 18 -5 3 -10 17 -10 31 0 13 -4 24 -10 24 -5 0 -10
8 -10 18 0 9 -14 53 -31 97 -16 44 -32 85 -33 90 -2 6 -8 21 -13 35 -101 240
-185 414 -272 564 -28 49 -51 90 -51 92 0 6 -123 200 -146 231 -13 17 -24 34
-24 38 0 6 -10 19 -37 50 -7 7 -13 16 -13 20 0 3 -9 15 -20 27 -11 12 -20 28
-20 35 0 7 -4 13 -8 13 -5 0 -29 28 -54 63 -25 34 -54 72 -65 84 -10 11 -34
41 -53 64 -19 24 -46 56 -60 71 -14 15 -45 50 -70 79 -95 109 -395 399 -456
439 -12 9 -36 30 -53 48 -17 17 -31 29 -31 25 0 -5 -11 4 -25 19 -13 14 -34
29 -45 33 -11 3 -20 13 -20 21 0 8 -4 12 -10 9 -5 -3 -10 -2 -10 2 0 5 -18 19
-40 33 -22 14 -40 28 -40 32 0 5 -4 8 -10 8 -5 0 -36 20 -69 45 -32 25 -64 45
-70 45 -6 0 -11 4 -11 8 0 5 -10 14 -22 21 -45 24 -158 95 -175 111 -7 6 -13
7 -13 3 0 -4 -4 -3 -8 2 -6 9 -29 23 -97 59 -11 6 -22 14 -25 17 -7 8 -44 22
-52 21 -5 -1 -8 2 -8 6 0 5 -19 16 -42 27 -24 10 -45 21 -48 24 -5 6 -80 44
-90 46 -3 0 -28 12 -57 27 -28 14 -54 24 -57 21 -3 -4 -6 -1 -6 5 0 7 -6 12
-13 12 -8 0 -27 6 -43 14 -30 14 -93 42 -131 57 -58 23 -79 32 -95 40 -10 5
-27 9 -38 9 -11 0 -20 4 -20 8 0 5 -7 9 -15 10 -8 1 -22 3 -30 4 -8 1 -15 5
-15 10 0 4 -11 8 -24 8 -14 0 -31 6 -39 14 -11 11 -17 12 -26 3 -8 -8 -11 -8
-11 0 0 6 -15 15 -32 19 -43 10 -34 8 -103 28 -33 9 -71 22 -85 27 -14 5 -37
10 -52 11 -16 1 -28 6 -28 11 0 4 -6 7 -12 6 -7 -2 -38 3 -68 10 -30 7 -65 15
-77 17 -71 13 -108 22 -108 24 0 1 -13 4 -30 5 -16 2 -40 6 -52 9 -11 2 -43 7
-70 11 -26 4 -59 9 -73 11 -39 8 -112 16 -142 17 -16 0 -28 3 -28 6 0 3 -19 6
-43 7 -98 2 -152 8 -159 18 -5 7 -8 7 -8 1 0 -6 -25 -9 -62 -7 -140 8 -448 6
-448 -2 0 -5 -6 -3 -13 3 -8 6 -17 8 -21 4 -3 -4 -30 -8 -59 -9 -52 -1 -176
-12 -252 -20 -22 -3 -58 -7 -80 -9 -22 -2 -40 -4 -40 -5 0 -2 -22 -6 -80 -14
-115 -18 -150 -24 -150 -26 0 -1 -11 -3 -25 -6 -41 -6 -94 -17 -105 -21 -5 -2
-38 -8 -72 -14 -35 -7 -63 -15 -63 -19 0 -5 -8 -7 -17 -5 -10 1 -22 0 -28 -4
-5 -3 -14 -6 -20 -8 -12 -2 -46 -11 -77 -19 -13 -3 -29 -6 -35 -6 -7 -1 -13
-4 -13 -8 0 -3 -8 -6 -17 -7 -10 -1 -57 -15 -105 -31 -48 -17 -89 -27 -92 -24
-3 3 -6 0 -6 -7 0 -7 -4 -9 -10 -6 -5 3 -10 1 -10 -5 0 -6 -4 -9 -9 -5 -5 3
-25 -1 -43 -9 -41 -18 -73 -28 -74 -24 0 2 -8 -3 -17 -11 -10 -7 -17 -10 -17
-6 0 4 -7 1 -16 -6 -9 -7 -21 -14 -28 -15 -15 -2 -101 -40 -137 -59 -14 -8
-29 -12 -33 -8 -3 3 -6 1 -6 -6 0 -7 -4 -10 -9 -6 -5 3 -12 1 -16 -5 -4 -6
-11 -8 -16 -5 -5 4 -9 1 -9 -5 0 -6 -4 -9 -9 -6 -5 4 -11 3 -13 -1 -3 -8 -170
-94 -174 -90 -4 4 73 260 104 349 52 148 142 357 218 505 485 943 1286 1637
2289 1983 117 40 461 132 540 145 22 3 54 8 70 11 17 2 55 9 85 14 52 8 118
18 185 26 17 2 77 6 135 10 58 3 106 7 108 9 4 4 471 -4 507 -9z m-1777 -2839
c40 -2 75 -7 78 -10 4 -4 14 -2 24 3 10 5 20 6 24 2 4 -3 24 -7 44 -8 50 -3
141 -12 172 -19 47 -9 105 -17 138 -18 17 -1 32 -4 32 -7 0 -3 8 -6 18 -6 9
-1 35 -4 57 -9 22 -4 50 -8 63 -7 12 0 22 -3 22 -7 0 -4 6 -8 13 -8 44 -3 67
-8 67 -16 0 -4 4 -6 8 -3 5 3 35 -2 68 -11 32 -8 66 -17 74 -19 8 -2 42 -11
75 -20 33 -9 65 -17 70 -18 6 -1 20 -8 33 -14 12 -7 22 -10 22 -7 0 3 16 -1
35 -9 19 -8 35 -12 35 -9 0 3 6 1 13 -4 6 -5 32 -15 57 -23 25 -7 49 -17 54
-22 6 -4 15 -8 22 -8 6 0 29 -8 50 -17 22 -9 41 -17 44 -18 13 -4 49 -19 87
-37 23 -11 47 -17 53 -13 5 3 13 -1 16 -9 3 -9 24 -21 45 -27 21 -7 39 -16 39
-21 0 -5 4 -7 8 -4 5 3 23 -4 40 -15 18 -10 39 -19 46 -19 8 0 16 -3 18 -7 2
-5 26 -19 53 -32 28 -14 52 -27 55 -31 3 -3 35 -21 73 -40 37 -18 67 -37 67
-42 0 -5 5 -6 10 -3 6 3 10 1 10 -4 0 -6 5 -11 11 -11 6 0 43 -21 82 -47 40
-26 75 -46 80 -45 4 1 7 -2 7 -7 0 -5 13 -14 30 -21 16 -7 28 -15 26 -19 -3
-4 8 -12 23 -19 15 -7 37 -21 49 -32 12 -11 24 -20 28 -20 3 0 18 -10 33 -22
15 -13 42 -34 61 -48 18 -14 39 -31 46 -37 7 -7 15 -13 19 -13 4 0 12 -6 19
-12 7 -7 32 -29 56 -48 166 -137 348 -311 480 -460 36 -40 70 -78 75 -84 6 -6
41 -49 78 -96 37 -47 76 -95 86 -107 11 -13 18 -23 15 -23 -2 0 3 -8 12 -17
35 -39 103 -139 104 -151 0 -7 5 -10 10 -7 6 3 10 2 10 -4 0 -12 62 -115 73
-119 4 -2 7 -10 7 -18 0 -8 5 -14 10 -14 6 0 10 -4 10 -9 0 -5 17 -38 38 -73
20 -35 45 -77 54 -93 10 -17 56 -106 102 -200 140 -283 261 -613 330 -905 31
-132 61 -277 71 -350 3 -19 7 -48 10 -65 14 -92 21 -148 30 -267 l5 -56 -84
-75 c-196 -174 -447 -355 -681 -489 -400 -230 -976 -426 -1412 -483 -24 -3
-62 -8 -85 -11 -232 -34 -732 -39 -933 -9 -16 2 -49 6 -71 9 -250 31 -514 92
-779 181 -1201 402 -2145 1346 -2540 2540 -45 136 -90 291 -111 386 -20 90
-63 335 -69 389 -4 36 -9 73 -10 82 -31 157 -24 749 10 947 5 28 33 61 51 61
7 0 19 6 26 13 7 7 36 23 63 37 28 14 52 28 53 33 2 4 10 7 18 7 8 0 14 5 14
10 0 6 5 10 11 10 5 0 31 10 57 22 26 12 50 21 55 20 4 -1 7 2 7 8 0 5 7 10
15 10 8 0 15 5 15 11 0 6 7 9 15 5 8 -3 15 -1 15 5 0 6 6 9 14 6 8 -3 17 1 20
9 3 8 12 14 19 14 8 0 27 6 43 14 43 20 116 51 144 61 3 1 18 7 33 13 15 7 39
15 52 18 14 3 25 11 25 17 0 6 3 8 6 4 4 -3 28 2 55 12 26 10 50 16 53 13 4
-3 6 -1 6 5 0 5 6 10 13 11 20 1 41 7 52 13 6 4 18 5 28 3 11 -1 16 0 12 4 -8
8 101 40 153 44 6 1 12 4 12 8 0 4 6 7 13 8 16 1 67 11 89 18 19 6 53 14 83
19 11 3 27 6 35 8 46 12 147 30 220 40 8 2 20 5 25 8 6 3 27 5 48 4 20 0 37 3
37 7 0 4 8 5 18 3 10 -2 25 0 32 5 7 5 23 4 35 0 13 -5 26 -5 31 0 5 5 36 11
69 13 33 3 68 8 78 12 10 4 17 3 17 -5 0 -6 5 -8 12 -4 6 4 57 9 112 11 56 3
102 6 103 6 3 3 264 -2 341 -6z"/>
</g>
</svg>
